# AST/ASF file generated using VICON BodyLanguage
# -----------------------------------------------
:version 1.10
:name VICON
:units
  mass 1.0
  length 0.45
  angle deg
:documentation
   .ast/.asf automatically generated from VICON data using
   VICON BodyBuilder and BodyLanguage model FoxedUp or BRILLIANT.MOD
:root
   order TX TY TZ RX RY RZ
   axis XYZ
   position 0 0 0  
   orientation 0 0 0 
:bonedata
  begin
     id 1 
     name lhipjoint
     direction 0.597014 -0.743513 0.301268 
     length 2.48253 
     axis 0 0 0  XYZ
  end
  begin
     id 2 
     name lfemur
     direction 0.34202 -0.939693 0  
     length 7.51389  
     axis 0 0 20  XYZ
    dof rx ry rz
    limits (-160.0 20.0)
           (-70.0 70.0)
           (-60.0 70.0)
  end
  begin
     id 3 
     name ltibia
     direction 0.34202 -0.939693 0   
     length 7.54147   
     axis 0 0 20   XYZ
    dof rx
    limits (-10.0 170.0)
  end
  begin
     id 4 
     name lfoot
     direction 0.10378 -0.285133 0.952853   
     length 2.2132   
     axis -90 7.62852e-016 20   XYZ
    dof rx rz
    limits (-45.0 90.0)
           (-70.0 20.0)
  end
  begin
     id 5 
     name ltoes
     direction 1.5354e-011 -4.2171e-011 1   
     length 1.10362   
     axis -90 7.62852e-016 20   XYZ
    dof rx
    limits (-90.0 20.0)
  end
  begin
     id 6 
     name rhipjoint
     direction -0.591912 -0.747009 0.302685   
     length 2.47092  
     axis 0 0 0  XYZ 
  end
  begin
     id 7 
     name rfemur
     direction -0.34202 -0.939693 0   
     length 7.69991   
     axis 0 0 -20   XYZ
    dof rx ry rz
    limits (-160.0 20.0)
           (-70.0 70.0)
           (-70.0 60.0)
  end
  begin
     id 8 
     name rtibia
     direction -0.34202 -0.939693 0   
     length 7.40774   
     axis 0 0 -20   XYZ
    dof rx
    limits (-10.0 170.0)
 end
 begin
     id 9 
     name rfoot
     direction -0.0916245 -0.251736 0.963449   
     length 2.08235  
     axis -90 -7.62852e-016 -20   XYZ
    dof rx rz
    limits (-45.0 90.0)
           (-20.0 70.0)
  end
  begin
     id 10 
     name rtoes
     direction -1.53527e-011 -4.21878e-011 1   
     length 1.04369   
     axis -90 -7.62852e-016 -20   XYZ
    dof rx
    limits (-90.0 20.0)
  end
  begin
     id 11 
     name lowerback
     direction -0.0122523 0.991496 -0.12956   
     length 2.10814   
     axis 0 0 0   XYZ
    dof rx ry rz
    limits (-20.0 45.0)
           (-30.0 30.0)
           (-30.0 30.0)
  end
  begin
     id 12 
     name upperback
     direction 0.012378 0.999784 -0.0167122   
     length 2.11728   
     axis 0 0 0   XYZ
    dof rx ry rz
    limits (-20.0 45.0)
           (-30.0 30.0)
           (-30.0 30.0)
  end
  begin
     id 13 
     name thorax
     direction 0.0187236 0.998893 0.0431542   
     length 2.15267   
     axis 0 0 0   XYZ
    dof rx ry rz
    limits (-20.0 45.0)
           (-30.0 30.0)
           (-30.0 30.0)
  end
  begin
     id 14 
     name lowerneck
     direction 0.0165467 0.987304 0.157979   
     length 1.72129   
     axis 0 0 0   XYZ
    dof rx ry rz
    limits (-20.0 45.0)
           (-30.0 30.0)
           (-30.0 30.0)
  end
  begin
     id 15 
     name upperneck
     direction -0.0560236 0.986819 -0.151818   
     length 1.75382   
     axis 0 0 0   XYZ
    dof rx ry rz
    limits (-20.0 45.0)
           (-30.0 30.0)
           (-30.0 30.0)
  end
  begin
     id 16
     name head
     direction -0.0173602 0.99745 -0.0692312  
     length 1.76328  
     axis 0 0 0   XYZ
    dof rx ry rz
    limits (-20.0 45.0)
           (-30.0 30.0)
           (-30.0 30.0)
  end
  begin
     id 17 
     name lclavicle
     direction 0.957734 0.271724 -0.094399  
     length 3.5782  
     axis 0 0 0   XYZ
    dof ry rz
    limits (-20.0 10.0)
           (0.0 20.0)
  end
  begin
     id 18 
     name lhumerus
     direction 1 -4.48963e-011 1.21581e-027   
     length 5.25525   
     axis 180 -30 -90   XYZ
    dof rx ry rz
    limits (-60.0 90.0)
           (-90.0 90.0)
           (-90.0 90.0)
  end
  begin
     id 19
     name lradius
     direction 1 -4.48975e-011 3.71216e-028   
     length 3.35106   
     axis 180 -30 -90   XYZ
    dof rx
    limits (-10.0 170.0)
  end
  begin
     id 20
     name lwrist
     direction 1 -4.48957e-011 4.76535e-027   
     length 1.67553   
     axis -3.27501e-015 90 90   XYZ
    dof ry
    limits (-180.0 0.0)
 end
  begin
     id 21 
     name lhand
     direction 1 -4.49008e-011 9.52727e-027   
     length 0.574153   
     axis -6.08097e-015 90 90   XYZ
    dof rx rz
    limits (-90.0 90.0)
           (-45.0 45.0)
  end
  begin
     id 22 
     name lfingers
     direction 1 -4.48996e-011 1.90562e-026   
     length 0.462897   
     axis -1.21618e-014 90 90   XYZ
    dof rx
    limits (0.0 90.0)
  end
  begin
     id 23
     name lthumb
     direction 0.707107 -6.34908e-011 0.707107   
     length 0.66463   
     axis -90 45 -1.62303e-014   XYZ
    dof rx rz
    limits (-45.0 45.0)
           (-45.0 45.0)
  end
  begin
     id 24 
     name rclavicle
     direction -0.950439 0.29623 -0.0944132   
     length 3.45861  
     axis 0 0 0   XYZ 
    dof ry rz
    limits (-10.0 20.0)
           (-20.0 0.0)
  end
  begin
     id 25 
     name rhumerus
     direction -1 -4.48986e-011 1.25473e-027  
     length 5.33104   
     axis 180 30 90   XYZ
    dof rx ry rz
    limits (-90.0 60.0)
           (-90.0 90.0)
           (-90.0 90.0)
  end
  begin
     id 26 
     name rradius
     direction -1 -4.4894e-011 1.66273e-027   
     length 3.39883   
     axis 180 30 90   XYZ
    dof rx
    limits (-10.0 170.0)
  end
  begin
     id 27 
     name rwrist
     direction -1 -4.48946e-011 4.76572e-027   
     length 1.69941   
     axis -3.27501e-015 -90 -90   XYZ
    dof ry
    limits (-180.0 0.0)
  end
  begin
     id 28
     name rhand
     direction -1 -4.49028e-011 9.52595e-027   
     length 0.913886   
     axis -6.08097e-015 -90 -90   XYZ
    dof rx rz
    limits (-90.0 90.0)
           (-45.0 45.0)
  end
  begin
     id 29
     name rfingers
     direction -1 -4.48945e-011 1.9063e-026   
     length 0.736798   
     axis -1.21618e-014 -90 -90   XYZ
    dof rx
    limits (0.0 90.0)
  end
  begin
     id 30
     name rthumb
     direction -0.707107 -6.34966e-011 0.707107   
     length 1.0579   
     axis -90 -45 1.62303e-014   XYZ
    dof rx rz
    limits (-45.0 45.0)
           (-45.0 45.0)
  end
:hierarchy
  begin
    root lhipjoint rhipjoint lowerback
    lhipjoint lfemur
    lfemur ltibia
    ltibia lfoot
    lfoot ltoes
    rhipjoint rfemur
    rfemur rtibia
    rtibia rfoot
    rfoot rtoes
    lowerback upperback
    upperback thorax
    thorax lowerneck lclavicle rclavicle
    lowerneck upperneck
    upperneck head
    lclavicle lhumerus
    lhumerus lradius
    lradius lwrist
    lwrist lhand lthumb
    lhand lfingers
    rclavicle rhumerus
    rhumerus rradius
    rradius rwrist
    rwrist rhand rthumb
    rhand rfingers
  end

#!OML:ASF F:\VICON\USERDATA\INSTALL\rory3\rory3.ASF
:FULLY-SPECIFIED
:DEGREES
508
root -4.99344 17.133 38.2316 171.621 26.9005 -180.561
lowerback 12.8266 -4.98529 -11.532
upperback -0.0366848 -7.67511 7.12514
thorax -4.65826 -3.40123 15.7065
lowerneck -17.2654 3.19741 0.720882
upperneck 25.3262 7.20476 -7.22113
head 11.4295 2.74367 -1.62644
rclavicle 1.28887e-013 -5.56597e-014
rhumerus -23.8887 35.0594 -75.7793
rradius 134.562
rwrist 42.191
rhand -28.661 -9.06641
rfingers 7.12502
rthumb -2.02432 -39.0366
lclavicle 1.28887e-013 -5.56597e-014
lhumerus -19.1504 -40.7622 112.494
lradius 112.714
lwrist 15.5754
lhand -34.6522 23.8804
lfingers 7.12502
lthumb -7.80908 53.7161
rfemur -11.7206 6.68898 11.4072
rtibia 38.3565
rfoot -13.9698 3.2771
rtoes -3.27215
lfemur -0.595322 2.73998 -22.0215
ltibia 39.1264
lfoot -26.1659 13.9989
ltoes -0.493121
509
root -4.89814 17.1219 38.2034 171.578 27.2846 -180.347
lowerback 13.9001 -5.02637 -12.6782
upperback -0.580456 -7.9164 8.18028
thorax -5.45345 -3.34594 17.9566
lowerneck -16.716 3.79678 0.230086
upperneck 25.1145 8.55076 -8.20584
head 11.3499 3.24397 -1.69832
rclavicle -8.58253e-014 -2.70347e-014
rhumerus -23.0713 35.8734 -73.6358
rradius 134.9
rwrist 41.3165
rhand -29.7489 -8.27772
rfingers 7.12502
rthumb -3.07495 -38.2353
lclavicle -8.58253e-014 -2.70347e-014
lhumerus -18.3873 -40.9508 113.974
lradius 112.954
lwrist 14.4759
lhand -35.0425 23.3902
lfingers 7.12502
lthumb -8.18575 53.2117
rfemur -11.5247 6.69769 12.0045
rtibia 38.6019
rfoot -14.4069 3.3403
rtoes -4.45036
lfemur -0.146113 2.63773 -21.581
ltibia 39.0991
lfoot -26.4126 14.447
ltoes -1.20051
510
root -4.80605 17.1111 38.1505 171.593 28.077 -180.489
lowerback 14.0439 -5.00507 -13.5406
upperback -0.891318 -7.98386 8.86317
thorax -5.62913 -3.29173 19.4367
lowerneck -16.356 4.45237 0.0686222
upperneck 24.884 9.83553 -9.10299
head 11.317 3.75347 -1.80069
rclavicle 1.44616e-014 -6.36111e-015
rhumerus -21.9364 36.0089 -71.6285
rradius 135.041
rwrist 40.0821
rhand -30.8545 -7.14325
rfingers 7.12502
rthumb -4.14262 -37.0827
lclavicle 1.44616e-014 -6.36111e-015
lhumerus -17.3783 -41.5353 114.861
lradius 113.368
lwrist 14.159
lhand -36.9327 23.156
lfingers 7.12502
lthumb -10.0097 52.898
rfemur -11.6657 7.03386 12.1685
rtibia 38.9009
rfoot -14.7481 3.73599
rtoes -5.23735
lfemur 0.26629 2.59747 -21.6703
ltibia 39.0429
lfoot -26.8724 15.3136
ltoes -2.11166
511
root -4.70734 17.1001 38.1192 171.822 28.6867 -180.163
lowerback 14.2972 -5.07031 -13.9672
upperback -1.22607 -8.07035 9.80762
thorax -5.93203 -3.26254 20.3545
lowerneck -16.2861 5.13402 0.116363
upperneck 24.9516 11.1037 -9.84093
head 11.4661 4.27304 -1.87528
rclavicle -1.2424e-014 1.90833e-014
rhumerus -21.013 35.8855 -69.9426
rradius 135.189
rwrist 38.813
rhand -32.2107 -5.6672
rfingers 7.12502
rthumb -5.45214 -35.5771
lclavicle -1.2424e-014 1.90833e-014
lhumerus -16.0976 -42.1599 114.965
lradius 113.853
lwrist 12.664
lhand -37.4815 24.3385
lfingers 7.12502
lthumb -10.5392 54.0543
rfemur -11.7183 7.20814 12.8429
rtibia 39.1787
rfoot -15.0303 4.01914
rtoes -4.92933
lfemur 0.59312 2.38197 -21.212
ltibia 39.0665
lfoot -27.2726 15.7923
ltoes -2.40435
512
root -4.60495 17.0925 38.0877 171.96 29.3384 -179.675
lowerback 14.6766 -5.07492 -14.1669
upperback -1.44189 -8.06923 10.3759
thorax -6.27449 -3.16615 21.2889
lowerneck -15.9791 5.82937 0.0754901
upperneck 24.7405 12.2573 -10.2827
head 11.4348 4.78259 -1.85025
rclavicle 1.17184e-013 -8.5875e-014
rhumerus -20.1696 35.4619 -68.3849
rradius 135.455
rwrist 37.6945
rhand -33.4945 -4.45348
rfingers 7.12502
rthumb -6.69159 -34.3277
lclavicle 1.17184e-013 -8.5875e-014
lhumerus -14.3927 -41.9806 115.11
lradius 113.759
lwrist 10.083
lhand -36.9059 24.0194
lfingers 7.12502
lthumb -9.98382 53.7626
rfemur -11.5808 7.35932 13.7043
rtibia 39.4432
rfoot -15.2816 4.32985
rtoes -5.0338
lfemur 1.08356 2.36701 -20.4852
ltibia 39.0754
lfoot -27.734 15.9921
ltoes -1.86107
513
root -4.50752 17.0871 38.0486 172.196 29.8738 -179.252
lowerback 14.7384 -5.13352 -14.023
upperback -1.61927 -8.07744 10.689
thorax -6.47664 -3.11689 21.6396
lowerneck -15.2428 6.54619 -0.00253631
upperneck 24.0754 13.2116 -10.3706
head 11.1013 5.27066 -1.74303
rclavicle -1.26924e-013 3.18055e-014
rhumerus -19.368 34.7085 -67.2179
rradius 135.706
rwrist 36.6208
rhand -34.7213 -3.48903
rfingers 7.12502
rthumb -7.87574 -33.3223
lclavicle -1.26924e-013 3.18055e-014
lhumerus -12.4361 -42.6025 113.967
lradius 114.02
lwrist 7.8136
lhand -36.2918 23.2525
lfingers 7.12502
lthumb -9.39137 53.0233
rfemur -11.5555 7.34337 14.4198
rtibia 39.6847
rfoot -15.589 4.53997
rtoes -5.82596
lfemur 1.39411 2.31103 -19.8768
ltibia 39.0965
lfoot -27.9929 16.2974
ltoes -2.24384
514
root -4.40421 17.0753 38.0152 172.185 30.0304 -179.036
lowerback 14.8796 -5.20452 -14.0191
upperback -1.72432 -8.16741 10.8189
thorax -6.61191 -3.12908 21.8499
lowerneck -14.5288 7.26111 0.0766397
upperneck 23.3969 14.0884 -10.4074
head 10.7717 5.74282 -1.6641
rclavicle -1.02573e-013 5.40694e-014
rhumerus -18.3162 33.7346 -66.1501
rradius 135.65
rwrist 35.2884
rhand -36.1305 -2.43179
rfingers 7.12502
rthumb -9.23568 -32.2095
lclavicle -1.02573e-013 5.40694e-014
lhumerus -10.0924 -43.33 112.859
lradius 113.954
lwrist 4.86637
lhand -33.6712 22.4226
lfingers 7.12502
lthumb -6.86217 52.2914
rfemur -11.2787 7.30636 14.9706
rtibia 39.9334
rfoot -15.9817 4.5413
rtoes -6.09134
lfemur 1.84998 2.03261 -19.4655
ltibia 39.0969
lfoot -28.2123 16.4279
ltoes -1.872
